<svg xmlns="http://www.w3.org/2000/svg" viewBox="0 0 32 32" fill="currentColor"><path d="M19.11 17.53c-.27-.14-1.61-.79-1.86-.88-.25-.09-.43-.14-.61.14-.18.27-.7.88-.86 1.06-.16.18-.32.2-.59.07-.27-.14-1.14-.42-2.17-1.35-.8-.71-1.34-1.59-1.5-1.86-.16-.27-.02-.42.12-.55.12-.12.27-.32.41-.48.14-.16.18-.27.27-.45.09-.18.05-.34-.02-.48-.07-.14-.61-1.47-.84-2.01-.22-.53-.44-.46-.61-.47h-.52c-.18 0-.48.07-.73.34-.25.27-.95.93-.95 2.26 0 1.33.97 2.61 1.11 2.79.14.18 1.9 2.9 4.6 4.07.64.28 1.14.45 1.53.58.64.2 1.22.17 1.68.1.51-.08 1.61-.66 1.84-1.3.23-.64.23-1.18.16-1.3-.07-.11-.25-.18-.52-.32z"/><path d="M26.67 5.33A13.21 13.21 0 0016.02 0C8.75 0 2.86 5.9 2.86 13.17c0 2.32.61 4.58 1.77 6.57L2 30.67l11.19-2.94a13.14 13.14 0 006.29 1.6h.01c7.27 0 13.17-5.9 13.17-13.17 0-3.52-1.37-6.83-3.99-9.83zM16.02 27.1h-.01a10.9 10.9 0 01-5.56-1.52l-.4-.24-6.64 1.74 1.77-6.47-.26-.42a10.86 10.86 0 01-1.66-5.82c0-6.02 4.9-10.92 10.92-10.92 2.91 0 5.64 1.13 7.7 3.2 2.05 2.06 3.18 4.79 3.18 7.7 0 6.02-4.9 10.92-10.92 10.92z"/></svg>